<svg xmlns="http://www.w3.org/2000/svg" version="1.1" xmlns:xlink="http://www.w3.org/1999/xlink" xmlns:svgjs="http://svgjs.dev/svgjs" viewBox="0 0 800 800" opacity="0.1" width="800" height="800"><g stroke-width="2.5" stroke="hsl(261, 60%, 38%)" fill="none"><rect width="11.31578947368421" height="11.31578947368421" x="-5.657894736842105" y="-5.657894736842105" transform="rotate(45, 0, 0)"></rect><rect width="11.31578947368421" height="11.31578947368421" x="38.78654970760234" y="-5.657894736842105" transform="rotate(45, 44.44444444444444, 0)"></rect><rect width="11.31578947368421" height="11.31578947368421" x="83.23099415204678" y="-5.657894736842105" transform="rotate(45, 88.88888888888889, 0)"></rect><rect width="11.31578947368421" height="11.31578947368421" x="127.6754385964912" y="-5.657894736842105" transform="rotate(45, 133.33333333333331, 0)"></rect><rect width="11.31578947368421" height="11.31578947368421" x="172.11988304093566" y="-5.657894736842105" transform="rotate(45, 177.77777777777777, 0)"></rect><rect width="11.31578947368421" height="11.31578947368421" x="216.56432748538012" y="-5.657894736842105" transform="rotate(45, 222.22222222222223, 0)"></rect><rect width="11.31578947368421" height="11.31578947368421" x="261.0087719298246" y="-5.657894736842105" transform="rotate(45, 266.6666666666667, 0)"></rect><rect width="11.31578947368421" height="11.31578947368421" x="305.45321637426906" y="-5.657894736842105" transform="rotate(45, 311.11111111111114, 0)"></rect><rect width="11.31578947368421" height="11.31578947368421" x="349.8976608187135" y="-5.657894736842105" transform="rotate(45, 355.5555555555556, 0)"></rect><rect width="11.31578947368421" height="11.31578947368421" x="394.342105263158" y="-5.657894736842105" transform="rotate(45, 400.00000000000006, 0)"></rect><rect width="11.31578947368421" height="11.31578947368421" x="438.78654970760243" y="-5.657894736842105" transform="rotate(45, 444.4444444444445, 0)"></rect><rect width="11.31578947368421" height="11.31578947368421" x="483.2309941520469" y="-5.657894736842105" transform="rotate(45, 488.88888888888897, 0)"></rect><rect width="11.31578947368421" height="11.31578947368421" x="527.6754385964913" y="-5.657894736842105" transform="rotate(45, 533.3333333333334, 0)"></rect><rect width="11.31578947368421" height="11.31578947368421" x="572.1198830409357" y="-5.657894736842105" transform="rotate(45, 577.7777777777778, 0)"></rect><rect width="11.31578947368421" height="11.31578947368421" x="616.5643274853802" y="-5.657894736842105" transform="rotate(45, 622.2222222222223, 0)"></rect><rect width="11.31578947368421" height="11.31578947368421" x="661.0087719298247" y="-5.657894736842105" transform="rotate(45, 666.6666666666667, 0)"></rect><rect width="11.31578947368421" height="11.31578947368421" x="705.4532163742691" y="-5.657894736842105" transform="rotate(45, 711.1111111111112, 0)"></rect><rect width="11.31578947368421" height="11.31578947368421" x="749.8976608187136" y="-5.657894736842105" transform="rotate(45, 755.5555555555557, 0)"></rect><rect width="11.31578947368421" height="11.31578947368421" x="794.342105263158" y="-5.657894736842105" transform="rotate(45, 800.0000000000001, 0)"></rect><rect width="11.31578947368421" height="11.31578947368421" x="-5.657894736842105" y="74.34210526315789" transform="rotate(45, 0, 80)"></rect><rect width="11.31578947368421" height="11.31578947368421" x="38.78654970760234" y="74.34210526315789" transform="rotate(45, 44.44444444444444, 80)"></rect><rect width="11.31578947368421" height="11.31578947368421" x="83.23099415204678" y="74.34210526315789" transform="rotate(45, 88.88888888888889, 80)"></rect><rect width="11.31578947368421" height="11.31578947368421" x="127.6754385964912" y="74.34210526315789" transform="rotate(45, 133.33333333333331, 80)"></rect><rect width="11.31578947368421" height="11.31578947368421" x="172.11988304093566" y="74.34210526315789" transform="rotate(45, 177.77777777777777, 80)"></rect><rect width="11.31578947368421" height="11.31578947368421" x="216.56432748538012" y="74.34210526315789" transform="rotate(45, 222.22222222222223, 80)"></rect><rect width="11.31578947368421" height="11.31578947368421" x="261.0087719298246" y="74.34210526315789" fill="hsl(261, 60%, 38%)" stroke="none" transform="rotate(45, 266.6666666666667, 80)"></rect><rect width="11.31578947368421" height="11.31578947368421" x="305.45321637426906" y="74.34210526315789" fill="hsl(261, 60%, 38%)" stroke="none" transform="rotate(45, 311.11111111111114, 80)"></rect><rect width="11.31578947368421" height="11.31578947368421" x="349.8976608187135" y="74.34210526315789" fill="hsl(261, 60%, 38%)" stroke="none" transform="rotate(45, 355.5555555555556, 80)"></rect><rect width="11.31578947368421" height="11.31578947368421" x="394.342105263158" y="74.34210526315789" transform="rotate(45, 400.00000000000006, 80)"></rect><rect width="11.31578947368421" height="11.31578947368421" x="438.78654970760243" y="74.34210526315789" fill="hsl(261, 60%, 38%)" stroke="none" transform="rotate(45, 444.4444444444445, 80)"></rect><rect width="11.31578947368421" height="11.31578947368421" x="483.2309941520469" y="74.34210526315789" fill="hsl(261, 60%, 38%)" stroke="none" transform="rotate(45, 488.88888888888897, 80)"></rect><rect width="11.31578947368421" height="11.31578947368421" x="527.6754385964913" y="74.34210526315789" transform="rotate(45, 533.3333333333334, 80)"></rect><rect width="11.31578947368421" height="11.31578947368421" x="572.1198830409357" y="74.34210526315789" transform="rotate(45, 577.7777777777778, 80)"></rect><rect width="11.31578947368421" height="11.31578947368421" x="616.5643274853802" y="74.34210526315789" fill="hsl(261, 60%, 38%)" stroke="none" transform="rotate(45, 622.2222222222223, 80)"></rect><rect width="11.31578947368421" height="11.31578947368421" x="661.0087719298247" y="74.34210526315789" transform="rotate(45, 666.6666666666667, 80)"></rect><rect width="11.31578947368421" height="11.31578947368421" x="705.4532163742691" y="74.34210526315789" transform="rotate(45, 711.1111111111112, 80)"></rect><rect width="11.31578947368421" height="11.31578947368421" x="749.8976608187136" y="74.34210526315789" fill="hsl(261, 60%, 38%)" stroke="none" transform="rotate(45, 755.5555555555557, 80)"></rect><rect width="11.31578947368421" height="11.31578947368421" x="794.342105263158" y="74.34210526315789" transform="rotate(45, 800.0000000000001, 80)"></rect><rect width="11.31578947368421" height="11.31578947368421" x="-5.657894736842105" y="154.3421052631579" transform="rotate(45, 0, 160)"></rect><rect width="11.31578947368421" height="11.31578947368421" x="38.78654970760234" y="154.3421052631579" transform="rotate(45, 44.44444444444444, 160)"></rect><rect width="11.31578947368421" height="11.31578947368421" x="83.23099415204678" y="154.3421052631579" transform="rotate(45, 88.88888888888889, 160)"></rect><rect width="11.31578947368421" height="11.31578947368421" x="127.6754385964912" y="154.3421052631579" transform="rotate(45, 133.33333333333331, 160)"></rect><rect width="11.31578947368421" height="11.31578947368421" x="172.11988304093566" y="154.3421052631579" transform="rotate(45, 177.77777777777777, 160)"></rect><rect width="11.31578947368421" height="11.31578947368421" x="216.56432748538012" y="154.3421052631579" transform="rotate(45, 222.22222222222223, 160)"></rect><rect width="11.31578947368421" height="11.31578947368421" x="261.0087719298246" y="154.3421052631579" fill="hsl(261, 60%, 38%)" stroke="none" transform="rotate(45, 266.6666666666667, 160)"></rect><rect width="11.31578947368421" height="11.31578947368421" x="305.45321637426906" y="154.3421052631579" transform="rotate(45, 311.11111111111114, 160)"></rect><rect width="11.31578947368421" height="11.31578947368421" x="349.8976608187135" y="154.3421052631579" transform="rotate(45, 355.5555555555556, 160)"></rect><rect width="11.31578947368421" height="11.31578947368421" x="394.342105263158" y="154.3421052631579" transform="rotate(45, 400.00000000000006, 160)"></rect><rect width="11.31578947368421" height="11.31578947368421" x="438.78654970760243" y="154.3421052631579" transform="rotate(45, 444.4444444444445, 160)"></rect><rect width="11.31578947368421" height="11.31578947368421" x="483.2309941520469" y="154.3421052631579" transform="rotate(45, 488.88888888888897, 160)"></rect><rect width="11.31578947368421" height="11.31578947368421" x="527.6754385964913" y="154.3421052631579" transform="rotate(45, 533.3333333333334, 160)"></rect><rect width="11.31578947368421" height="11.31578947368421" x="572.1198830409357" y="154.3421052631579" transform="rotate(45, 577.7777777777778, 160)"></rect><rect width="11.31578947368421" height="11.31578947368421" x="616.5643274853802" y="154.3421052631579" transform="rotate(45, 622.2222222222223, 160)"></rect><rect width="11.31578947368421" height="11.31578947368421" x="661.0087719298247" y="154.3421052631579" transform="rotate(45, 666.6666666666667, 160)"></rect><rect width="11.31578947368421" height="11.31578947368421" x="705.4532163742691" y="154.3421052631579" fill="hsl(261, 60%, 38%)" stroke="none" transform="rotate(45, 711.1111111111112, 160)"></rect><rect width="11.31578947368421" height="11.31578947368421" x="749.8976608187136" y="154.3421052631579" fill="hsl(261, 60%, 38%)" stroke="none" transform="rotate(45, 755.5555555555557, 160)"></rect><rect width="11.31578947368421" height="11.31578947368421" x="794.342105263158" y="154.3421052631579" transform="rotate(45, 800.0000000000001, 160)"></rect><rect width="11.31578947368421" height="11.31578947368421" x="-5.657894736842105" y="234.3421052631579" transform="rotate(45, 0, 240)"></rect><rect width="11.31578947368421" height="11.31578947368421" x="38.78654970760234" y="234.3421052631579" transform="rotate(45, 44.44444444444444, 240)"></rect><rect width="11.31578947368421" height="11.31578947368421" x="83.23099415204678" y="234.3421052631579" fill="hsl(261, 60%, 38%)" stroke="none" transform="rotate(45, 88.88888888888889, 240)"></rect><rect width="11.31578947368421" height="11.31578947368421" x="127.6754385964912" y="234.3421052631579" transform="rotate(45, 133.33333333333331, 240)"></rect><rect width="11.31578947368421" height="11.31578947368421" x="172.11988304093566" y="234.3421052631579" transform="rotate(45, 177.77777777777777, 240)"></rect><rect width="11.31578947368421" height="11.31578947368421" x="216.56432748538012" y="234.3421052631579" transform="rotate(45, 222.22222222222223, 240)"></rect><rect width="11.31578947368421" height="11.31578947368421" x="261.0087719298246" y="234.3421052631579" transform="rotate(45, 266.6666666666667, 240)"></rect><rect width="11.31578947368421" height="11.31578947368421" x="305.45321637426906" y="234.3421052631579" transform="rotate(45, 311.11111111111114, 240)"></rect><rect width="11.31578947368421" height="11.31578947368421" x="349.8976608187135" y="234.3421052631579" transform="rotate(45, 355.5555555555556, 240)"></rect><rect width="11.31578947368421" height="11.31578947368421" x="394.342105263158" y="234.3421052631579" fill="hsl(261, 60%, 38%)" stroke="none" transform="rotate(45, 400.00000000000006, 240)"></rect><rect width="11.31578947368421" height="11.31578947368421" x="438.78654970760243" y="234.3421052631579" transform="rotate(45, 444.4444444444445, 240)"></rect><rect width="11.31578947368421" height="11.31578947368421" x="483.2309941520469" y="234.3421052631579" transform="rotate(45, 488.88888888888897, 240)"></rect><rect width="11.31578947368421" height="11.31578947368421" x="527.6754385964913" y="234.3421052631579" transform="rotate(45, 533.3333333333334, 240)"></rect><rect width="11.31578947368421" height="11.31578947368421" x="572.1198830409357" y="234.3421052631579" transform="rotate(45, 577.7777777777778, 240)"></rect><rect width="11.31578947368421" height="11.31578947368421" x="616.5643274853802" y="234.3421052631579" fill="hsl(261, 60%, 38%)" stroke="none" transform="rotate(45, 622.2222222222223, 240)"></rect><rect width="11.31578947368421" height="11.31578947368421" x="661.0087719298247" y="234.3421052631579" transform="rotate(45, 666.6666666666667, 240)"></rect><rect width="11.31578947368421" height="11.31578947368421" x="705.4532163742691" y="234.3421052631579" transform="rotate(45, 711.1111111111112, 240)"></rect><rect width="11.31578947368421" height="11.31578947368421" x="749.8976608187136" y="234.3421052631579" fill="hsl(261, 60%, 38%)" stroke="none" transform="rotate(45, 755.5555555555557, 240)"></rect><rect width="11.31578947368421" height="11.31578947368421" x="794.342105263158" y="234.3421052631579" transform="rotate(45, 800.0000000000001, 240)"></rect><rect width="11.31578947368421" height="11.31578947368421" x="-5.657894736842105" y="314.3421052631579" transform="rotate(45, 0, 320)"></rect><rect width="11.31578947368421" height="11.31578947368421" x="38.78654970760234" y="314.3421052631579" transform="rotate(45, 44.44444444444444, 320)"></rect><rect width="11.31578947368421" height="11.31578947368421" x="83.23099415204678" y="314.3421052631579" transform="rotate(45, 88.88888888888889, 320)"></rect><rect width="11.31578947368421" height="11.31578947368421" x="127.6754385964912" y="314.3421052631579" fill="hsl(261, 60%, 38%)" stroke="none" transform="rotate(45, 133.33333333333331, 320)"></rect><rect width="11.31578947368421" height="11.31578947368421" x="172.11988304093566" y="314.3421052631579" transform="rotate(45, 177.77777777777777, 320)"></rect><rect width="11.31578947368421" height="11.31578947368421" x="216.56432748538012" y="314.3421052631579" transform="rotate(45, 222.22222222222223, 320)"></rect><rect width="11.31578947368421" height="11.31578947368421" x="261.0087719298246" y="314.3421052631579" transform="rotate(45, 266.6666666666667, 320)"></rect><rect width="11.31578947368421" height="11.31578947368421" x="305.45321637426906" y="314.3421052631579" transform="rotate(45, 311.11111111111114, 320)"></rect><rect width="11.31578947368421" height="11.31578947368421" x="349.8976608187135" y="314.3421052631579" transform="rotate(45, 355.5555555555556, 320)"></rect><rect width="11.31578947368421" height="11.31578947368421" x="394.342105263158" y="314.3421052631579" transform="rotate(45, 400.00000000000006, 320)"></rect><rect width="11.31578947368421" height="11.31578947368421" x="438.78654970760243" y="314.3421052631579" fill="hsl(261, 60%, 38%)" stroke="none" transform="rotate(45, 444.4444444444445, 320)"></rect><rect width="11.31578947368421" height="11.31578947368421" x="483.2309941520469" y="314.3421052631579" fill="hsl(261, 60%, 38%)" stroke="none" transform="rotate(45, 488.88888888888897, 320)"></rect><rect width="11.31578947368421" height="11.31578947368421" x="527.6754385964913" y="314.3421052631579" fill="hsl(261, 60%, 38%)" stroke="none" transform="rotate(45, 533.3333333333334, 320)"></rect><rect width="11.31578947368421" height="11.31578947368421" x="572.1198830409357" y="314.3421052631579" fill="hsl(261, 60%, 38%)" stroke="none" transform="rotate(45, 577.7777777777778, 320)"></rect><rect width="11.31578947368421" height="11.31578947368421" x="616.5643274853802" y="314.3421052631579" fill="hsl(261, 60%, 38%)" stroke="none" transform="rotate(45, 622.2222222222223, 320)"></rect><rect width="11.31578947368421" height="11.31578947368421" x="661.0087719298247" y="314.3421052631579" transform="rotate(45, 666.6666666666667, 320)"></rect><rect width="11.31578947368421" height="11.31578947368421" x="705.4532163742691" y="314.3421052631579" transform="rotate(45, 711.1111111111112, 320)"></rect><rect width="11.31578947368421" height="11.31578947368421" x="749.8976608187136" y="314.3421052631579" transform="rotate(45, 755.5555555555557, 320)"></rect><rect width="11.31578947368421" height="11.31578947368421" x="794.342105263158" y="314.3421052631579" transform="rotate(45, 800.0000000000001, 320)"></rect><rect width="11.31578947368421" height="11.31578947368421" x="-5.657894736842105" y="394.3421052631579" transform="rotate(45, 0, 400)"></rect><rect width="11.31578947368421" height="11.31578947368421" x="38.78654970760234" y="394.3421052631579" transform="rotate(45, 44.44444444444444, 400)"></rect><rect width="11.31578947368421" height="11.31578947368421" x="83.23099415204678" y="394.3421052631579" fill="hsl(261, 60%, 38%)" stroke="none" transform="rotate(45, 88.88888888888889, 400)"></rect><rect width="11.31578947368421" height="11.31578947368421" x="127.6754385964912" y="394.3421052631579" transform="rotate(45, 133.33333333333331, 400)"></rect><rect width="11.31578947368421" height="11.31578947368421" x="172.11988304093566" y="394.3421052631579" transform="rotate(45, 177.77777777777777, 400)"></rect><rect width="11.31578947368421" height="11.31578947368421" x="216.56432748538012" y="394.3421052631579" fill="hsl(261, 60%, 38%)" stroke="none" transform="rotate(45, 222.22222222222223, 400)"></rect><rect width="11.31578947368421" height="11.31578947368421" x="261.0087719298246" y="394.3421052631579" transform="rotate(45, 266.6666666666667, 400)"></rect><rect width="11.31578947368421" height="11.31578947368421" x="305.45321637426906" y="394.3421052631579" transform="rotate(45, 311.11111111111114, 400)"></rect><rect width="11.31578947368421" height="11.31578947368421" x="349.8976608187135" y="394.3421052631579" transform="rotate(45, 355.5555555555556, 400)"></rect><rect width="11.31578947368421" height="11.31578947368421" x="394.342105263158" y="394.3421052631579" fill="hsl(261, 60%, 38%)" stroke="none" transform="rotate(45, 400.00000000000006, 400)"></rect><rect width="11.31578947368421" height="11.31578947368421" x="438.78654970760243" y="394.3421052631579" transform="rotate(45, 444.4444444444445, 400)"></rect><rect width="11.31578947368421" height="11.31578947368421" x="483.2309941520469" y="394.3421052631579" transform="rotate(45, 488.88888888888897, 400)"></rect><rect width="11.31578947368421" height="11.31578947368421" x="527.6754385964913" y="394.3421052631579" transform="rotate(45, 533.3333333333334, 400)"></rect><rect width="11.31578947368421" height="11.31578947368421" x="572.1198830409357" y="394.3421052631579" transform="rotate(45, 577.7777777777778, 400)"></rect><rect width="11.31578947368421" height="11.31578947368421" x="616.5643274853802" y="394.3421052631579" transform="rotate(45, 622.2222222222223, 400)"></rect><rect width="11.31578947368421" height="11.31578947368421" x="661.0087719298247" y="394.3421052631579" fill="hsl(261, 60%, 38%)" stroke="none" transform="rotate(45, 666.6666666666667, 400)"></rect><rect width="11.31578947368421" height="11.31578947368421" x="705.4532163742691" y="394.3421052631579" fill="hsl(261, 60%, 38%)" stroke="none" transform="rotate(45, 711.1111111111112, 400)"></rect><rect width="11.31578947368421" height="11.31578947368421" x="749.8976608187136" y="394.3421052631579" transform="rotate(45, 755.5555555555557, 400)"></rect><rect width="11.31578947368421" height="11.31578947368421" x="794.342105263158" y="394.3421052631579" transform="rotate(45, 800.0000000000001, 400)"></rect><rect width="11.31578947368421" height="11.31578947368421" x="-5.657894736842105" y="474.3421052631579" transform="rotate(45, 0, 480)"></rect><rect width="11.31578947368421" height="11.31578947368421" x="38.78654970760234" y="474.3421052631579" transform="rotate(45, 44.44444444444444, 480)"></rect><rect width="11.31578947368421" height="11.31578947368421" x="83.23099415204678" y="474.3421052631579" fill="hsl(261, 60%, 38%)" stroke="none" transform="rotate(45, 88.88888888888889, 480)"></rect><rect width="11.31578947368421" height="11.31578947368421" x="127.6754385964912" y="474.3421052631579" transform="rotate(45, 133.33333333333331, 480)"></rect><rect width="11.31578947368421" height="11.31578947368421" x="172.11988304093566" y="474.3421052631579" transform="rotate(45, 177.77777777777777, 480)"></rect><rect width="11.31578947368421" height="11.31578947368421" x="216.56432748538012" y="474.3421052631579" transform="rotate(45, 222.22222222222223, 480)"></rect><rect width="11.31578947368421" height="11.31578947368421" x="261.0087719298246" y="474.3421052631579" fill="hsl(261, 60%, 38%)" stroke="none" transform="rotate(45, 266.6666666666667, 480)"></rect><rect width="11.31578947368421" height="11.31578947368421" x="305.45321637426906" y="474.3421052631579" transform="rotate(45, 311.11111111111114, 480)"></rect><rect width="11.31578947368421" height="11.31578947368421" x="349.8976608187135" y="474.3421052631579" fill="hsl(261, 60%, 38%)" stroke="none" transform="rotate(45, 355.5555555555556, 480)"></rect><rect width="11.31578947368421" height="11.31578947368421" x="394.342105263158" y="474.3421052631579" transform="rotate(45, 400.00000000000006, 480)"></rect><rect width="11.31578947368421" height="11.31578947368421" x="438.78654970760243" y="474.3421052631579" fill="hsl(261, 60%, 38%)" stroke="none" transform="rotate(45, 444.4444444444445, 480)"></rect><rect width="11.31578947368421" height="11.31578947368421" x="483.2309941520469" y="474.3421052631579" transform="rotate(45, 488.88888888888897, 480)"></rect><rect width="11.31578947368421" height="11.31578947368421" x="527.6754385964913" y="474.3421052631579" transform="rotate(45, 533.3333333333334, 480)"></rect><rect width="11.31578947368421" height="11.31578947368421" x="572.1198830409357" y="474.3421052631579" transform="rotate(45, 577.7777777777778, 480)"></rect><rect width="11.31578947368421" height="11.31578947368421" x="616.5643274853802" y="474.3421052631579" transform="rotate(45, 622.2222222222223, 480)"></rect><rect width="11.31578947368421" height="11.31578947368421" x="661.0087719298247" y="474.3421052631579" fill="hsl(261, 60%, 38%)" stroke="none" transform="rotate(45, 666.6666666666667, 480)"></rect><rect width="11.31578947368421" height="11.31578947368421" x="705.4532163742691" y="474.3421052631579" transform="rotate(45, 711.1111111111112, 480)"></rect><rect width="11.31578947368421" height="11.31578947368421" x="749.8976608187136" y="474.3421052631579" transform="rotate(45, 755.5555555555557, 480)"></rect><rect width="11.31578947368421" height="11.31578947368421" x="794.342105263158" y="474.3421052631579" transform="rotate(45, 800.0000000000001, 480)"></rect><rect width="11.31578947368421" height="11.31578947368421" x="-5.657894736842105" y="554.3421052631579" transform="rotate(45, 0, 560)"></rect><rect width="11.31578947368421" height="11.31578947368421" x="38.78654970760234" y="554.3421052631579" fill="hsl(261, 60%, 38%)" stroke="none" transform="rotate(45, 44.44444444444444, 560)"></rect><rect width="11.31578947368421" height="11.31578947368421" x="83.23099415204678" y="554.3421052631579" transform="rotate(45, 88.88888888888889, 560)"></rect><rect width="11.31578947368421" height="11.31578947368421" x="127.6754385964912" y="554.3421052631579" transform="rotate(45, 133.33333333333331, 560)"></rect><rect width="11.31578947368421" height="11.31578947368421" x="172.11988304093566" y="554.3421052631579" transform="rotate(45, 177.77777777777777, 560)"></rect><rect width="11.31578947368421" height="11.31578947368421" x="216.56432748538012" y="554.3421052631579" transform="rotate(45, 222.22222222222223, 560)"></rect><rect width="11.31578947368421" height="11.31578947368421" x="261.0087719298246" y="554.3421052631579" transform="rotate(45, 266.6666666666667, 560)"></rect><rect width="11.31578947368421" height="11.31578947368421" x="305.45321637426906" y="554.3421052631579" fill="hsl(261, 60%, 38%)" stroke="none" transform="rotate(45, 311.11111111111114, 560)"></rect><rect width="11.31578947368421" height="11.31578947368421" x="349.8976608187135" y="554.3421052631579" fill="hsl(261, 60%, 38%)" stroke="none" transform="rotate(45, 355.5555555555556, 560)"></rect><rect width="11.31578947368421" height="11.31578947368421" x="394.342105263158" y="554.3421052631579" fill="hsl(261, 60%, 38%)" stroke="none" transform="rotate(45, 400.00000000000006, 560)"></rect><rect width="11.31578947368421" height="11.31578947368421" x="438.78654970760243" y="554.3421052631579" transform="rotate(45, 444.4444444444445, 560)"></rect><rect width="11.31578947368421" height="11.31578947368421" x="483.2309941520469" y="554.3421052631579" fill="hsl(261, 60%, 38%)" stroke="none" transform="rotate(45, 488.88888888888897, 560)"></rect><rect width="11.31578947368421" height="11.31578947368421" x="527.6754385964913" y="554.3421052631579" transform="rotate(45, 533.3333333333334, 560)"></rect><rect width="11.31578947368421" height="11.31578947368421" x="572.1198830409357" y="554.3421052631579" fill="hsl(261, 60%, 38%)" stroke="none" transform="rotate(45, 577.7777777777778, 560)"></rect><rect width="11.31578947368421" height="11.31578947368421" x="616.5643274853802" y="554.3421052631579" transform="rotate(45, 622.2222222222223, 560)"></rect><rect width="11.31578947368421" height="11.31578947368421" x="661.0087719298247" y="554.3421052631579" transform="rotate(45, 666.6666666666667, 560)"></rect><rect width="11.31578947368421" height="11.31578947368421" x="705.4532163742691" y="554.3421052631579" transform="rotate(45, 711.1111111111112, 560)"></rect><rect width="11.31578947368421" height="11.31578947368421" x="749.8976608187136" y="554.3421052631579" transform="rotate(45, 755.5555555555557, 560)"></rect><rect width="11.31578947368421" height="11.31578947368421" x="794.342105263158" y="554.3421052631579" transform="rotate(45, 800.0000000000001, 560)"></rect><rect width="11.31578947368421" height="11.31578947368421" x="-5.657894736842105" y="634.3421052631579" transform="rotate(45, 0, 640)"></rect><rect width="11.31578947368421" height="11.31578947368421" x="38.78654970760234" y="634.3421052631579" fill="hsl(261, 60%, 38%)" stroke="none" transform="rotate(45, 44.44444444444444, 640)"></rect><rect width="11.31578947368421" height="11.31578947368421" x="83.23099415204678" y="634.3421052631579" transform="rotate(45, 88.88888888888889, 640)"></rect><rect width="11.31578947368421" height="11.31578947368421" x="127.6754385964912" y="634.3421052631579" transform="rotate(45, 133.33333333333331, 640)"></rect><rect width="11.31578947368421" height="11.31578947368421" x="172.11988304093566" y="634.3421052631579" fill="hsl(261, 60%, 38%)" stroke="none" transform="rotate(45, 177.77777777777777, 640)"></rect><rect width="11.31578947368421" height="11.31578947368421" x="216.56432748538012" y="634.3421052631579" transform="rotate(45, 222.22222222222223, 640)"></rect><rect width="11.31578947368421" height="11.31578947368421" x="261.0087719298246" y="634.3421052631579" transform="rotate(45, 266.6666666666667, 640)"></rect><rect width="11.31578947368421" height="11.31578947368421" x="305.45321637426906" y="634.3421052631579" transform="rotate(45, 311.11111111111114, 640)"></rect><rect width="11.31578947368421" height="11.31578947368421" x="349.8976608187135" y="634.3421052631579" transform="rotate(45, 355.5555555555556, 640)"></rect><rect width="11.31578947368421" height="11.31578947368421" x="394.342105263158" y="634.3421052631579" fill="hsl(261, 60%, 38%)" stroke="none" transform="rotate(45, 400.00000000000006, 640)"></rect><rect width="11.31578947368421" height="11.31578947368421" x="438.78654970760243" y="634.3421052631579" transform="rotate(45, 444.4444444444445, 640)"></rect><rect width="11.31578947368421" height="11.31578947368421" x="483.2309941520469" y="634.3421052631579" transform="rotate(45, 488.88888888888897, 640)"></rect><rect width="11.31578947368421" height="11.31578947368421" x="527.6754385964913" y="634.3421052631579" transform="rotate(45, 533.3333333333334, 640)"></rect><rect width="11.31578947368421" height="11.31578947368421" x="572.1198830409357" y="634.3421052631579" transform="rotate(45, 577.7777777777778, 640)"></rect><rect width="11.31578947368421" height="11.31578947368421" x="616.5643274853802" y="634.3421052631579" fill="hsl(261, 60%, 38%)" stroke="none" transform="rotate(45, 622.2222222222223, 640)"></rect><rect width="11.31578947368421" height="11.31578947368421" x="661.0087719298247" y="634.3421052631579" fill="hsl(261, 60%, 38%)" stroke="none" transform="rotate(45, 666.6666666666667, 640)"></rect><rect width="11.31578947368421" height="11.31578947368421" x="705.4532163742691" y="634.3421052631579" transform="rotate(45, 711.1111111111112, 640)"></rect><rect width="11.31578947368421" height="11.31578947368421" x="749.8976608187136" y="634.3421052631579" transform="rotate(45, 755.5555555555557, 640)"></rect><rect width="11.31578947368421" height="11.31578947368421" x="794.342105263158" y="634.3421052631579" transform="rotate(45, 800.0000000000001, 640)"></rect><rect width="11.31578947368421" height="11.31578947368421" x="-5.657894736842105" y="714.3421052631579" transform="rotate(45, 0, 720)"></rect><rect width="11.31578947368421" height="11.31578947368421" x="38.78654970760234" y="714.3421052631579" fill="hsl(261, 60%, 38%)" stroke="none" transform="rotate(45, 44.44444444444444, 720)"></rect><rect width="11.31578947368421" height="11.31578947368421" x="83.23099415204678" y="714.3421052631579" transform="rotate(45, 88.88888888888889, 720)"></rect><rect width="11.31578947368421" height="11.31578947368421" x="127.6754385964912" y="714.3421052631579" transform="rotate(45, 133.33333333333331, 720)"></rect><rect width="11.31578947368421" height="11.31578947368421" x="172.11988304093566" y="714.3421052631579" transform="rotate(45, 177.77777777777777, 720)"></rect><rect width="11.31578947368421" height="11.31578947368421" x="216.56432748538012" y="714.3421052631579" fill="hsl(261, 60%, 38%)" stroke="none" transform="rotate(45, 222.22222222222223, 720)"></rect><rect width="11.31578947368421" height="11.31578947368421" x="261.0087719298246" y="714.3421052631579" transform="rotate(45, 266.6666666666667, 720)"></rect><rect width="11.31578947368421" height="11.31578947368421" x="305.45321637426906" y="714.3421052631579" fill="hsl(261, 60%, 38%)" stroke="none" transform="rotate(45, 311.11111111111114, 720)"></rect><rect width="11.31578947368421" height="11.31578947368421" x="349.8976608187135" y="714.3421052631579" transform="rotate(45, 355.5555555555556, 720)"></rect><rect width="11.31578947368421" height="11.31578947368421" x="394.342105263158" y="714.3421052631579" fill="hsl(261, 60%, 38%)" stroke="none" transform="rotate(45, 400.00000000000006, 720)"></rect><rect width="11.31578947368421" height="11.31578947368421" x="438.78654970760243" y="714.3421052631579" fill="hsl(261, 60%, 38%)" stroke="none" transform="rotate(45, 444.4444444444445, 720)"></rect><rect width="11.31578947368421" height="11.31578947368421" x="483.2309941520469" y="714.3421052631579" transform="rotate(45, 488.88888888888897, 720)"></rect><rect width="11.31578947368421" height="11.31578947368421" x="527.6754385964913" y="714.3421052631579" transform="rotate(45, 533.3333333333334, 720)"></rect><rect width="11.31578947368421" height="11.31578947368421" x="572.1198830409357" y="714.3421052631579" transform="rotate(45, 577.7777777777778, 720)"></rect><rect width="11.31578947368421" height="11.31578947368421" x="616.5643274853802" y="714.3421052631579" transform="rotate(45, 622.2222222222223, 720)"></rect><rect width="11.31578947368421" height="11.31578947368421" x="661.0087719298247" y="714.3421052631579" transform="rotate(45, 666.6666666666667, 720)"></rect><rect width="11.31578947368421" height="11.31578947368421" x="705.4532163742691" y="714.3421052631579" transform="rotate(45, 711.1111111111112, 720)"></rect><rect width="11.31578947368421" height="11.31578947368421" x="749.8976608187136" y="714.3421052631579" transform="rotate(45, 755.5555555555557, 720)"></rect><rect width="11.31578947368421" height="11.31578947368421" x="794.342105263158" y="714.3421052631579" transform="rotate(45, 800.0000000000001, 720)"></rect><rect width="11.31578947368421" height="11.31578947368421" x="-5.657894736842105" y="794.3421052631579" transform="rotate(45, 0, 800)"></rect><rect width="11.31578947368421" height="11.31578947368421" x="38.78654970760234" y="794.3421052631579" transform="rotate(45, 44.44444444444444, 800)"></rect><rect width="11.31578947368421" height="11.31578947368421" x="83.23099415204678" y="794.3421052631579" transform="rotate(45, 88.88888888888889, 800)"></rect><rect width="11.31578947368421" height="11.31578947368421" x="127.6754385964912" y="794.3421052631579" transform="rotate(45, 133.33333333333331, 800)"></rect><rect width="11.31578947368421" height="11.31578947368421" x="172.11988304093566" y="794.3421052631579" transform="rotate(45, 177.77777777777777, 800)"></rect><rect width="11.31578947368421" height="11.31578947368421" x="216.56432748538012" y="794.3421052631579" transform="rotate(45, 222.22222222222223, 800)"></rect><rect width="11.31578947368421" height="11.31578947368421" x="261.0087719298246" y="794.3421052631579" transform="rotate(45, 266.6666666666667, 800)"></rect><rect width="11.31578947368421" height="11.31578947368421" x="305.45321637426906" y="794.3421052631579" transform="rotate(45, 311.11111111111114, 800)"></rect><rect width="11.31578947368421" height="11.31578947368421" x="349.8976608187135" y="794.3421052631579" transform="rotate(45, 355.5555555555556, 800)"></rect><rect width="11.31578947368421" height="11.31578947368421" x="394.342105263158" y="794.3421052631579" transform="rotate(45, 400.00000000000006, 800)"></rect><rect width="11.31578947368421" height="11.31578947368421" x="438.78654970760243" y="794.3421052631579" transform="rotate(45, 444.4444444444445, 800)"></rect><rect width="11.31578947368421" height="11.31578947368421" x="483.2309941520469" y="794.3421052631579" transform="rotate(45, 488.88888888888897, 800)"></rect><rect width="11.31578947368421" height="11.31578947368421" x="527.6754385964913" y="794.3421052631579" transform="rotate(45, 533.3333333333334, 800)"></rect><rect width="11.31578947368421" height="11.31578947368421" x="572.1198830409357" y="794.3421052631579" transform="rotate(45, 577.7777777777778, 800)"></rect><rect width="11.31578947368421" height="11.31578947368421" x="616.5643274853802" y="794.3421052631579" transform="rotate(45, 622.2222222222223, 800)"></rect><rect width="11.31578947368421" height="11.31578947368421" x="661.0087719298247" y="794.3421052631579" transform="rotate(45, 666.6666666666667, 800)"></rect><rect width="11.31578947368421" height="11.31578947368421" x="705.4532163742691" y="794.3421052631579" transform="rotate(45, 711.1111111111112, 800)"></rect><rect width="11.31578947368421" height="11.31578947368421" x="749.8976608187136" y="794.3421052631579" transform="rotate(45, 755.5555555555557, 800)"></rect><rect width="11.31578947368421" height="11.31578947368421" x="794.342105263158" y="794.3421052631579" transform="rotate(45, 800.0000000000001, 800)"></rect></g></svg>