<svg xmlns="http://www.w3.org/2000/svg" version="1.1" xmlns:xlink="http://www.w3.org/1999/xlink" xmlns:svgjs="http://svgjs.dev/svgjs" viewBox="0 0 800 800"><g transform="matrix(-0.9975640502598242,-0.06975647374412552,0.06975647374412552,-0.9975640502598242,658.1230306062795,898.9282096015799)"><circle r="0.5" cx="684" cy="684" stroke-width="0.5" stroke="#fcfcfc" fill="none" opacity="0.01" transform="rotate(100, 304, 280)"></circle><circle r="12.958333333333334" cx="660.3333333333334" cy="660.3333333333334" stroke-width="0.5416666666666666" stroke="#f4f6fd" fill="none" opacity="0.04" transform="rotate(91.66666666666667, 304, 280)"></circle><circle r="25.416666666666668" cx="636.6666666666666" cy="636.6666666666666" stroke-width="0.5833333333333334" stroke="#ebeffd" fill="none" opacity="0.06999999999999999" transform="rotate(83.33333333333333, 304, 280)"></circle><circle r="37.875" cx="613" cy="613" stroke-width="0.625" stroke="#e1e7fd" fill="none" opacity="0.09999999999999999" transform="rotate(75, 304, 280)"></circle><circle r="50.333333333333336" cx="589.3333333333334" cy="589.3333333333334" stroke-width="0.6666666666666666" stroke="#d7e0fd" fill="none" opacity="0.13" transform="rotate(66.66666666666666, 304, 280)"></circle><circle r="62.79166666666667" cx="565.6666666666666" cy="565.6666666666666" stroke-width="0.7083333333333333" stroke="#cdd8fe" fill="none" opacity="0.16" transform="rotate(58.33333333333333, 304, 280)"></circle><circle r="75.25" cx="542" cy="542" stroke-width="0.75" stroke="#c2d0fe" fill="none" opacity="0.19" transform="rotate(50, 304, 280)"></circle><circle r="87.70833333333334" cx="518.3333333333333" cy="518.3333333333333" stroke-width="0.7916666666666666" stroke="#b6c8fe" fill="none" opacity="0.22" transform="rotate(41.666666666666664, 304, 280)"></circle><circle r="100.16666666666667" cx="494.66666666666663" cy="494.66666666666663" stroke-width="0.8333333333333333" stroke="#aabffe" fill="none" opacity="0.25" transform="rotate(33.33333333333333, 304, 280)"></circle><circle r="112.625" cx="471" cy="471" stroke-width="0.875" stroke="#9db6fe" fill="none" opacity="0.28" transform="rotate(25, 304, 280)"></circle><circle r="125.08333333333334" cx="447.3333333333333" cy="447.3333333333333" stroke-width="0.9166666666666666" stroke="#8eacff" fill="none" opacity="0.31" transform="rotate(16.666666666666657, 304, 280)"></circle><circle r="137.54166666666669" cx="423.66666666666663" cy="423.66666666666663" stroke-width="0.9583333333333333" stroke="#7ea2ff" fill="none" opacity="0.33999999999999997" transform="rotate(8.333333333333329, 304, 280)"></circle><circle r="150" cx="400" cy="400" stroke-width="1" stroke="#6b97ff" fill="none" opacity="0.37" transform="rotate(0, 304, 280)"></circle></g></svg>