<svg xmlns="http://www.w3.org/2000/svg" version="1.1" xmlns:xlink="http://www.w3.org/1999/xlink" xmlns:svgjs="http://svgjs.dev/svgjs" viewBox="0 0 800 800"><g transform="matrix(0.838670567945424,0.5446390350150271,-0.5446390350150271,0.838670567945424,282.38738682784117,-153.32384118418042)"><circle r="0.5" cx="603" cy="684" stroke-width="8" stroke="#00ff80" fill="none" opacity="0.1" transform="rotate(100, 336, 400)"></circle><circle r="7" cx="594.6086956521739" cy="671.6521739130435" stroke-width="7.695652173913043" stroke="#13f985" fill="none" opacity="0.1391304347826087" transform="rotate(109, 336, 400)"></circle><circle r="13.5" cx="586.2173913043479" cy="659.304347826087" stroke-width="7.391304347826087" stroke="#1bf48a" fill="none" opacity="0.17826086956521742" transform="rotate(118, 336, 400)"></circle><circle r="20" cx="577.8260869565217" cy="646.9565217391305" stroke-width="7.086956521739131" stroke="#21ee8f" fill="none" opacity="0.2173913043478261" transform="rotate(127, 336, 400)"></circle><circle r="26.5" cx="569.4347826086956" cy="634.6086956521739" stroke-width="6.782608695652174" stroke="#26e893" fill="none" opacity="0.2565217391304348" transform="rotate(136, 336, 400)"></circle><circle r="33" cx="561.0434782608695" cy="622.2608695652174" stroke-width="6.478260869565217" stroke="#2ae298" fill="none" opacity="0.2956521739130435" transform="rotate(145, 336, 400)"></circle><circle r="39.5" cx="552.6521739130435" cy="609.9130434782609" stroke-width="6.173913043478261" stroke="#2edc9c" fill="none" opacity="0.33478260869565224" transform="rotate(154, 336, 400)"></circle><circle r="46" cx="544.2608695652174" cy="597.5652173913044" stroke-width="5.869565217391305" stroke="#32d5a0" fill="none" opacity="0.37391304347826093" transform="rotate(163, 336, 400)"></circle><circle r="52.5" cx="535.8695652173913" cy="585.2173913043479" stroke-width="5.565217391304348" stroke="#36cea5" fill="none" opacity="0.4130434782608696" transform="rotate(172, 336, 400)"></circle><circle r="59" cx="527.4782608695652" cy="572.8695652173913" stroke-width="5.260869565217391" stroke="#39c7a9" fill="none" opacity="0.4521739130434783" transform="rotate(181, 336, 400)"></circle><circle r="65.5" cx="519.0869565217391" cy="560.5217391304348" stroke-width="4.956521739130435" stroke="#3cc0ac" fill="none" opacity="0.491304347826087" transform="rotate(190, 336, 400)"></circle><circle r="72" cx="510.695652173913" cy="548.1739130434783" stroke-width="4.6521739130434785" stroke="#3fb9b0" fill="none" opacity="0.5304347826086957" transform="rotate(199, 336, 400)"></circle><circle r="78.5" cx="502.30434782608694" cy="535.8260869565217" stroke-width="4.3478260869565215" stroke="#42b1b4" fill="none" opacity="0.5695652173913044" transform="rotate(208, 336, 400)"></circle><circle r="85" cx="493.9130434782609" cy="523.4782608695652" stroke-width="4.0434782608695645" stroke="#44a9b8" fill="none" opacity="0.6086956521739131" transform="rotate(217, 336, 400)"></circle><circle r="91.5" cx="485.52173913043475" cy="511.1304347826087" stroke-width="3.7391304347826084" stroke="#47a1bb" fill="none" opacity="0.6478260869565218" transform="rotate(226, 336, 400)"></circle><circle r="98" cx="477.1304347826087" cy="498.7826086956522" stroke-width="3.4347826086956523" stroke="#4998bf" fill="none" opacity="0.6869565217391305" transform="rotate(235, 336, 400)"></circle><circle r="104.5" cx="468.7391304347826" cy="486.4347826086956" stroke-width="3.1304347826086953" stroke="#4c8ec2" fill="none" opacity="0.7260869565217392" transform="rotate(244, 336, 400)"></circle><circle r="111" cx="460.3478260869565" cy="474.0869565217391" stroke-width="2.8260869565217384" stroke="#4e84c6" fill="none" opacity="0.7652173913043478" transform="rotate(253, 336, 400)"></circle><circle r="117.5" cx="451.9565217391304" cy="461.7391304347826" stroke-width="2.5217391304347823" stroke="#5179c9" fill="none" opacity="0.8043478260869565" transform="rotate(262, 336, 400)"></circle><circle r="124" cx="443.5652173913044" cy="449.3913043478261" stroke-width="2.217391304347826" stroke="#536ccc" fill="none" opacity="0.8434782608695652" transform="rotate(271, 336, 400)"></circle><circle r="130.5" cx="435.17391304347825" cy="437.04347826086956" stroke-width="1.9130434782608692" stroke="#555fd0" fill="none" opacity="0.8826086956521739" transform="rotate(280, 336, 400)"></circle><circle r="137" cx="426.78260869565213" cy="424.69565217391306" stroke-width="1.6086956521739122" stroke="#574ed3" fill="none" opacity="0.9217391304347826" transform="rotate(289, 336, 400)"></circle><circle r="143.5" cx="418.39130434782606" cy="412.3478260869565" stroke-width="1.304347826086956" stroke="#593ad6" fill="none" opacity="0.9608695652173913" transform="rotate(298, 336, 400)"></circle><circle r="150" cx="410" cy="400" stroke-width="1" stroke="#5b17d9" fill="none" opacity="1" transform="rotate(307, 336, 400)"></circle></g></svg>